<svg xmlns="http://www.w3.org/2000/svg" version="1.1" xmlns:xlink="http://www.w3.org/1999/xlink" xmlns:svgjs="http://svgjs.dev/svgjs" width="1000" height="247" viewBox="0 0 1000 247"><g transform="matrix(1,0,0,1,-0.606053682927552,0.1422136527612281)"><svg viewBox="0 0 396 98" data-background-color="#471e75" preserveAspectRatio="xMidYMid meet" height="247" width="1000" xmlns="http://www.w3.org/2000/svg" xmlns:xlink="http://www.w3.org/1999/xlink"><g id="tight-bounds" transform="matrix(1,0,0,1,0.23999725843930264,-0.05642485008340259)"><svg viewBox="0 0 395.52 98.11284970016679" height="98.11284970016679" width="395.52"><g><svg viewBox="0 0 557.4115850163953 138.27174115555556" height="98.11284970016679" width="395.52"><g transform="matrix(1,0,0,1,0,19.109915022222225)"><svg viewBox="0 0 395.52 100.05191111111111" height="100.05191111111111" width="395.52"><g id="textblocktransform"><svg viewBox="0 0 395.52 100.05191111111111" height="100.05191111111111" width="395.52" id="textblock"><g><svg viewBox="0 0 395.52 100.05191111111111" height="100.05191111111111" width="395.52"><g transform="matrix(1,0,0,1,0,0)"><svg width="395.52" viewBox="2.5999999046325684 -33.849998474121094 134.489990234375 34.14999771118164" height="100.05191111111111" data-palette-color="#ffffff"><g class="wordmark-text-0" data-fill-palette-color="primary" id="text-0"><path d="M2.6-33.85L10.8-33.85 10.8-13.7Q10.8-11.5 11.28-10.05 11.75-8.6 12.58-7.7 13.4-6.8 14.55-6.43 15.7-6.05 17-6.05L17-6.05Q19.7-6.05 21.13-7.98 22.55-9.9 22.55-13.7L22.55-13.7 22.55-33.85 30.8-33.85 30.8-13.25Q30.8-10.55 30.05-8.1 29.3-5.65 27.58-3.78 25.85-1.9 23.1-0.8 20.35 0.3 16.35 0.3L16.35 0.3Q12.5 0.3 9.88-0.83 7.25-1.95 5.65-3.83 4.05-5.7 3.33-8.15 2.6-10.6 2.6-13.25L2.6-13.25 2.6-33.85ZM56.65-20.9L56.5-33.85 64.75-33.85 64.75 0 57.7 0 48.05-14.6Q47.75-15.05 47.22-15.9 46.7-16.75 46.12-17.68 45.55-18.6 45.02-19.48 44.5-20.35 44.15-20.9L44.15-20.9Q44.2-20.15 44.27-19.07 44.35-18 44.42-16.9 44.5-15.8 44.55-14.75 44.6-13.7 44.6-13L44.6-13 44.75 0 36.5 0 36.5-33.85 43.25-33.85 53-19.35Q53.45-18.65 54-17.78 54.55-16.9 55.12-16 55.7-15.1 56.2-14.28 56.7-13.45 57.05-12.85L57.05-12.85Q57-13.65 56.95-14.7 56.9-15.75 56.82-16.88 56.75-18 56.7-19.05 56.65-20.1 56.65-20.9L56.65-20.9ZM70.94 0L70.94-33.85 79.19-33.85 79.19 0 70.94 0ZM82.39-33.85L107.54-33.85 106.49-27.8 98.69-27.8 98.69 0 90.44 0 90.44-27.8 82.39-27.8 82.39-33.85ZM118.09 0L118.09-13 107.64-33.85 116.34-33.85 122.34-20.9 128.49-33.85 137.09-33.85 126.29-12.55 126.29 0 118.09 0Z" fill="#ffffff" data-fill-palette-color="primary"></path></g></svg></g></svg></g></svg></g></svg></g><g transform="matrix(1,0,0,1,419.13985496746665,0)"><svg viewBox="0 0 138.27173004892862 138.27174115555556" height="138.27174115555556" width="138.27173004892862"><g><svg xmlns="http://www.w3.org/2000/svg" xmlns:xlink="http://www.w3.org/1999/xlink" version="1.1" x="0" y="0" viewBox="2.509000062942505 2.508997917175293 94.98199462890625 94.98200225830078" enable-background="new 0 0 100 100" xml:space="preserve" height="138.27174115555556" width="138.27173004892862" class="icon-icon-0" data-fill-palette-color="accent" id="icon-0"><path d="M50 70.433c-7.473 0-13.529 6.058-13.529 13.529 0 7.473 6.057 13.529 13.529 13.529s13.529-6.057 13.529-13.529C63.529 76.49 57.473 70.433 50 70.433zM50 29.567c7.473 0 13.529-6.057 13.529-13.529 0-7.472-6.057-13.529-13.529-13.529S36.471 8.566 36.471 16.038C36.471 23.511 42.527 29.567 50 29.567zM29.567 50c0-7.473-6.057-13.529-13.529-13.529C8.566 36.471 2.509 42.527 2.509 50s6.058 13.529 13.529 13.529C23.511 63.529 29.567 57.473 29.567 50zM83.962 36.471c-7.472 0-13.529 6.057-13.529 13.529s6.058 13.529 13.529 13.529c7.473 0 13.529-6.057 13.529-13.529S91.435 36.471 83.962 36.471zM19.591 68.676c-3.241 3.24-3.242 8.494-0.001 11.734 3.24 3.241 8.494 3.24 11.734-0.001 3.239-3.239 3.239-8.492-0.001-11.732S22.83 65.437 19.591 68.676zM80.409 31.324c3.241-3.24 3.242-8.494 0.001-11.734-3.241-3.241-8.494-3.24-11.734 0.001-3.24 3.24-3.24 8.492 0.001 11.732C71.917 34.563 77.169 34.564 80.409 31.324zM50 32.721c-9.543 0-17.279 7.735-17.279 17.279S40.457 67.279 50 67.279c9.544 0 17.279-7.735 17.279-17.279S59.544 32.721 50 32.721zM31.323 31.325c3.24-3.24 3.24-8.495 0-11.735-3.24-3.241-8.493-3.239-11.733 0.002-3.241 3.239-3.241 8.491 0 11.731C22.83 34.563 28.083 34.564 31.323 31.325zM68.675 68.677c-3.239 3.24-3.238 8.493 0.002 11.733 3.24 3.241 8.492 3.241 11.731 0 3.241-3.24 3.243-8.493 0.002-11.733C77.17 65.437 71.915 65.437 68.675 68.677z" fill="#ffffff" data-fill-palette-color="accent"></path></svg></g></svg></g></svg></g><defs></defs></svg><rect width="395.52" height="98.11284970016679" fill="none" stroke="none" visibility="hidden"></rect></g></svg></g></svg>